<svg width="20" height="20" viewBox="0 0 20 20" fill="none" xmlns="http://www.w3.org/2000/svg">
<path d="M19.75 10.0001C19.7469 12.383 18.8726 14.6826 17.2917 16.4657C15.7109 18.2488 13.5326 19.3922 11.1671 19.6807C11.1145 19.6867 11.0611 19.6814 11.0107 19.6653C10.9602 19.6491 10.9137 19.6224 10.8743 19.587C10.8348 19.5516 10.8034 19.5082 10.782 19.4597C10.7605 19.4112 10.7496 19.3587 10.75 19.3057V12.2501H13C13.1028 12.2503 13.2045 12.2294 13.2989 12.1886C13.3933 12.1479 13.4783 12.0882 13.5487 12.0132C13.619 11.9382 13.6732 11.8495 13.7078 11.7527C13.7424 11.6559 13.7568 11.553 13.75 11.4504C13.7334 11.2576 13.6444 11.0781 13.5009 10.9482C13.3574 10.8183 13.1701 10.7475 12.9765 10.7501H10.75V8.5001C10.75 8.10227 10.908 7.72074 11.1893 7.43944C11.4706 7.15813 11.8521 7.0001 12.25 7.0001H13.75C13.8528 7.00032 13.9545 6.97941 14.0489 6.93865C14.1433 6.89789 14.2283 6.83816 14.2987 6.76316C14.369 6.68817 14.4232 6.59951 14.4578 6.5027C14.4924 6.4059 14.5068 6.303 14.5 6.20041C14.4834 6.00722 14.3941 5.82752 14.2502 5.69755C14.1063 5.56757 13.9185 5.49701 13.7246 5.5001H12.25C11.4543 5.5001 10.6912 5.81617 10.1286 6.37878C9.56603 6.94139 9.24996 7.70445 9.24996 8.5001V10.7501H6.99996C6.89714 10.7499 6.79538 10.7708 6.70099 10.8115C6.60659 10.8523 6.52159 10.912 6.45126 10.987C6.38092 11.062 6.32676 11.1507 6.29213 11.2475C6.2575 11.3443 6.24315 11.4472 6.24996 11.5498C6.26655 11.743 6.35579 11.9227 6.49968 12.0527C6.64357 12.1826 6.8314 12.2532 7.02527 12.2501H9.24996V19.3076C9.25028 19.3605 9.2394 19.4129 9.21803 19.4613C9.19666 19.5097 9.16528 19.5531 9.12597 19.5885C9.08665 19.6239 9.04028 19.6506 8.98991 19.6668C8.93954 19.683 8.8863 19.6884 8.83371 19.6826C6.40498 19.3868 4.1758 18.19 2.5874 16.329C0.999005 14.4681 0.167161 12.0786 0.25652 9.63354C0.44402 4.57104 4.54464 0.455411 9.6109 0.258536C10.9225 0.207729 12.231 0.42199 13.4579 0.888503C14.6848 1.35502 15.8051 2.0642 16.7516 2.97363C17.6981 3.88306 18.4515 4.97405 18.9667 6.18136C19.4819 7.38866 19.7483 8.68747 19.75 10.0001Z" fill="#F7F7F6"/>
</svg>
